<?xml version="1.0" standalone="no"?>
<!DOCTYPE svg PUBLIC "-//W3C//DTD SVG 20010904//EN"
 "http://www.w3.org/TR/2001/REC-SVG-20010904/DTD/svg10.dtd">
<svg version="1.0" xmlns="http://www.w3.org/2000/svg"
 width="500.000000pt" height="500.000000pt" viewBox="0 0 500.000000 500.000000"
 preserveAspectRatio="xMidYMid meet">
<metadata>
Created by potrace 1.14, written by Peter Selinger 2001-2017
</metadata>
<g transform="translate(0.000000,500.000000) scale(0.100000,-0.100000)"
fill="#000000" stroke="none">
<path d="M0 2500 l0 -2500 2500 0 2500 0 0 2500 0 2500 -2500 0 -2500 0 0
-2500z m4290 85 l0 -1785 -1787 2 -1788 3 -3 1783 -2 1782 1790 0 1790 0 0
-1785z"/>
<path d="M790 2585 l0 -1705 1710 0 1710 0 0 1705 0 1705 -1710 0 -1710 0 0
-1705z m886 682 c46 -198 85 -361 88 -364 9 -9 11 0 96 371 44 192 82 351 84
353 2 2 73 2 158 1 l155 -3 -163 -630 -164 -629 0 -468 0 -468 -160 0 -160 0
0 457 0 456 -165 636 c-91 350 -165 640 -165 644 0 4 71 6 157 5 l157 -3 82
-358z m1635 336 c168 -49 269 -160 321 -351 29 -107 32 -394 5 -492 -25 -94
-69 -182 -115 -232 l-39 -43 98 -505 c54 -278 101 -515 104 -527 l5 -23 -163
0 -163 0 -63 353 c-35 193 -72 400 -83 460 l-20 107 -44 0 -44 0 0 -460 0
-460 -160 0 -160 0 0 1101 0 1101 228 -5 c185 -4 239 -8 293 -24z"/>
<path d="M3110 2977 l0 -326 38 6 c20 2 57 15 82 27 38 19 51 33 80 91 35 68
35 68 35 204 -1 122 -3 142 -25 195 -34 80 -81 118 -155 124 l-55 4 0 -325z"/>
</g>
</svg>
