<svg width="500" height="500" viewBox="0 0 500 500" fill="none" xmlns="http://www.w3.org/2000/svg">
<rect width="500" height="500" rx="20" fill="black"/>
<path d="M60.4641 112.429H128.033L193.094 235.307H195.881L260.942 112.429H328.511L224.441 296.885V397.751H164.534V296.885L60.4641 112.429Z" fill="white"/>
<path d="M190.318 397.013V109.231H303.856C325.59 109.231 344.138 113.119 359.502 120.894C374.959 128.576 386.715 139.489 394.772 153.635C402.922 167.687 406.997 184.221 406.997 203.238C406.997 222.348 402.875 238.789 394.631 252.56C386.388 266.237 374.444 276.729 358.799 284.036C343.248 291.343 324.419 294.996 302.311 294.996H226.29V246.096H292.474C304.091 246.096 313.74 244.503 321.421 241.318C329.103 238.133 334.817 233.356 338.564 226.986C342.405 220.615 344.326 212.7 344.326 203.238C344.326 193.683 342.405 185.626 338.564 179.069C334.817 172.511 329.056 167.546 321.281 164.174C313.599 160.708 303.903 158.975 292.193 158.975H251.162V397.013H190.318ZM345.731 266.05L417.255 397.013H350.087L280.109 266.05H345.731Z" fill="white"/>
<path d="M194.523 240.021L113.541 99.7554L275.505 99.7554L194.523 240.021Z" fill="black"/>
</svg>
